<svg width="31" height="30" viewBox="0 0 31 30" fill="none" xmlns="http://www.w3.org/2000/svg">
<g id="border_color">
<mask id="mask0_109_1718" style="mask-type:alpha" maskUnits="userSpaceOnUse" x="0" y="0" width="31" height="30">
<rect id="Bounding box" x="0.688599" width="30" height="30" fill="#D9D9D9"/>
</mask>
<g mask="url(#mask0_109_1718)">
<path id="border_color_2" d="M3.18878 30.0001V25.0001H28.1888V30.0001H3.18878ZM8.18878 20.0001H9.93878L19.6888 10.2814L17.9075 8.50012L8.18878 18.2501V20.0001ZM5.68878 22.5001V17.1876L19.6888 3.21887C19.9179 2.98971 20.1836 2.81262 20.4857 2.68762C20.7877 2.56262 21.1054 2.50012 21.4388 2.50012C21.7721 2.50012 22.095 2.56262 22.4075 2.68762C22.72 2.81262 23.0013 3.00012 23.2513 3.25012L24.97 5.00012C25.22 5.22929 25.4023 5.50012 25.5169 5.81262C25.6315 6.12512 25.6888 6.44804 25.6888 6.78137C25.6888 7.09387 25.6315 7.40116 25.5169 7.70325C25.4023 8.00533 25.22 8.28137 24.97 8.53137L11.0013 22.5001H5.68878Z" fill="#353866"/>
</g>
</g>
</svg>
