<svg width="31" height="30" viewBox="0 0 31 30" fill="none" xmlns="http://www.w3.org/2000/svg">
<mask id="mask0_164_83" style="mask-type:alpha" maskUnits="userSpaceOnUse" x="0" y="0" width="31" height="30">
<rect x="0.416687" width="30" height="30" fill="#D9D9D9"/>
</mask>
<g mask="url(#mask0_164_83)">
<path d="M7.72919 21.3749C8.79169 20.5624 9.97919 19.9218 11.2917 19.4531C12.6042 18.9843 13.9792 18.7499 15.4167 18.7499C16.8542 18.7499 18.2292 18.9843 19.5417 19.4531C20.8542 19.9218 22.0417 20.5624 23.1042 21.3749C23.8334 20.5208 24.4011 19.552 24.8073 18.4687C25.2136 17.3854 25.4167 16.2291 25.4167 14.9999C25.4167 12.2291 24.4427 9.86973 22.4948 7.92181C20.5469 5.9739 18.1875 4.99994 15.4167 4.99994C12.6459 4.99994 10.2865 5.9739 8.33856 7.92181C6.39065 9.86973 5.41669 12.2291 5.41669 14.9999C5.41669 16.2291 5.61981 17.3854 6.02606 18.4687C6.43231 19.552 7.00002 20.5208 7.72919 21.3749ZM15.4167 16.2499C14.1875 16.2499 13.1511 15.8281 12.3073 14.9843C11.4636 14.1406 11.0417 13.1041 11.0417 11.8749C11.0417 10.6458 11.4636 9.60931 12.3073 8.76556C13.1511 7.92181 14.1875 7.49994 15.4167 7.49994C16.6459 7.49994 17.6823 7.92181 18.5261 8.76556C19.3698 9.60931 19.7917 10.6458 19.7917 11.8749C19.7917 13.1041 19.3698 14.1406 18.5261 14.9843C17.6823 15.8281 16.6459 16.2499 15.4167 16.2499ZM15.4167 27.4999C13.6875 27.4999 12.0625 27.1718 10.5417 26.5156C9.02085 25.8593 7.69794 24.9687 6.57294 23.8437C5.44794 22.7187 4.55731 21.3958 3.90106 19.8749C3.24481 18.3541 2.91669 16.7291 2.91669 14.9999C2.91669 13.2708 3.24481 11.6458 3.90106 10.1249C4.55731 8.60411 5.44794 7.28119 6.57294 6.15619C7.69794 5.03119 9.02085 4.14056 10.5417 3.48431C12.0625 2.82806 13.6875 2.49994 15.4167 2.49994C17.1459 2.49994 18.7709 2.82806 20.2917 3.48431C21.8125 4.14056 23.1354 5.03119 24.2604 6.15619C25.3854 7.28119 26.2761 8.60411 26.9323 10.1249C27.5886 11.6458 27.9167 13.2708 27.9167 14.9999C27.9167 16.7291 27.5886 18.3541 26.9323 19.8749C26.2761 21.3958 25.3854 22.7187 24.2604 23.8437C23.1354 24.9687 21.8125 25.8593 20.2917 26.5156C18.7709 27.1718 17.1459 27.4999 15.4167 27.4999Z" fill="#797DB9"/>
</g>
</svg>
