<svg width="28" height="28" viewBox="0 0 28 28" fill="none" xmlns="http://www.w3.org/2000/svg">
<mask id="mask0_532_628" style="mask-type:alpha" maskUnits="userSpaceOnUse" x="0" y="0" width="28" height="28">
<rect width="28" height="28" fill="#D9D9D9"/>
</mask>
<g mask="url(#mask0_532_628)">
<mask id="mask1_532_628" style="mask-type:alpha" maskUnits="userSpaceOnUse" x="0" y="1" width="28" height="28">
<rect y="1" width="28" height="28" fill="#D9D9D9"/>
</mask>
<g mask="url(#mask1_532_628)">
<path d="M12.8334 20.8333H8.16671C6.55282 20.8333 5.17712 20.2646 4.03962 19.1271C2.90212 17.9896 2.33337 16.6139 2.33337 15C2.33337 13.3861 2.90212 12.0104 4.03962 10.8729C5.17712 9.73541 6.55282 9.16666 8.16671 9.16666H12.8334V11.5H8.16671C7.19449 11.5 6.3681 11.8403 5.68754 12.5208C5.00699 13.2014 4.66671 14.0278 4.66671 15C4.66671 15.9722 5.00699 16.7986 5.68754 17.4792C6.3681 18.1597 7.19449 18.5 8.16671 18.5H12.8334V20.8333ZM9.33337 16.1667V13.8333H18.6667V16.1667H9.33337ZM15.1667 20.8333V18.5H19.8334C20.8056 18.5 21.632 18.1597 22.3125 17.4792C22.9931 16.7986 23.3334 15.9722 23.3334 15C23.3334 14.0278 22.9931 13.2014 22.3125 12.5208C21.632 11.8403 20.8056 11.5 19.8334 11.5H15.1667V9.16666H19.8334C21.4473 9.16666 22.823 9.73541 23.9605 10.8729C25.098 12.0104 25.6667 13.3861 25.6667 15C25.6667 16.6139 25.098 17.9896 23.9605 19.1271C22.823 20.2646 21.4473 20.8333 19.8334 20.8333H15.1667Z" fill="#353866"/>
</g>
</g>
</svg>
