<svg width="38" height="38" viewBox="0 0 38 38" fill="none" xmlns="http://www.w3.org/2000/svg">
<g id="search">
<mask id="mask0_151_867" style="mask-type:alpha" maskUnits="userSpaceOnUse" x="0" y="0" width="38" height="38">
<rect id="Bounding box" width="38" height="38" fill="#D9D9D9"/>
</mask>
<g mask="url(#mask0_151_867)">
<path id="search_2" d="M31.0333 33.25L21.0583 23.275C20.2667 23.9083 19.3562 24.4097 18.3271 24.7792C17.2979 25.1486 16.2028 25.3333 15.0417 25.3333C12.1653 25.3333 9.7309 24.3372 7.73854 22.3448C5.74618 20.3524 4.75 17.9181 4.75 15.0417C4.75 12.1653 5.74618 9.7309 7.73854 7.73854C9.7309 5.74618 12.1653 4.75 15.0417 4.75C17.9181 4.75 20.3524 5.74618 22.3448 7.73854C24.3372 9.7309 25.3333 12.1653 25.3333 15.0417C25.3333 16.2028 25.1486 17.2979 24.7792 18.3271C24.4097 19.3562 23.9083 20.2667 23.275 21.0583L33.25 31.0333L31.0333 33.25ZM15.0417 22.1667C17.0208 22.1667 18.7031 21.474 20.0885 20.0885C21.474 18.7031 22.1667 17.0208 22.1667 15.0417C22.1667 13.0625 21.474 11.3802 20.0885 9.99479C18.7031 8.60937 17.0208 7.91667 15.0417 7.91667C13.0625 7.91667 11.3802 8.60937 9.99479 9.99479C8.60938 11.3802 7.91667 13.0625 7.91667 15.0417C7.91667 17.0208 8.60938 18.7031 9.99479 20.0885C11.3802 21.474 13.0625 22.1667 15.0417 22.1667Z" fill="#E75BA6"/>
</g>
</g>
</svg>
