<svg width="22" height="21" viewBox="0 0 22 21" fill="none" xmlns="http://www.w3.org/2000/svg">
<path d="M2.25 20.5C1.76389 20.5 1.35069 20.3299 1.01042 19.9896C0.670139 19.6494 0.5 19.2362 0.5 18.75V16.5334L5.16667 12.3917V20.5H2.25ZM6.33333 20.5V15.8334H15.6667V20.5H6.33333ZM16.8333 20.5V10.9334L11.8458 6.50005L15.375 3.37922L20.9167 8.30838C21.1111 8.48338 21.2569 8.68269 21.3542 8.9063C21.4514 9.12991 21.5 9.3681 21.5 9.62088V18.75C21.5 19.2362 21.3299 19.6494 20.9896 19.9896C20.6493 20.3299 20.2361 20.5 19.75 20.5H16.8333ZM0.5 14.9584V9.62088C0.5 9.3681 0.548611 9.12505 0.645833 8.89172C0.743056 8.65838 0.888889 8.46394 1.08333 8.30838L9.83333 0.550049C9.98889 0.394493 10.1688 0.282688 10.3729 0.214632C10.5771 0.146577 10.7861 0.112549 11 0.112549C11.2139 0.112549 11.4229 0.146577 11.6271 0.214632C11.8313 0.282688 12.0111 0.394493 12.1667 0.550049L14.5 2.62088L0.5 14.9584Z" fill="#E75BA6"/>
</svg>
