<svg width="28" height="28" viewBox="0 0 28 28" fill="none" xmlns="http://www.w3.org/2000/svg">
<mask id="mask0_81_395" style="mask-type:alpha" maskUnits="userSpaceOnUse" x="0" y="0" width="28" height="28">
<rect width="28" height="28" fill="#D9D9D9"/>
</mask>
<g mask="url(#mask0_81_395)">
<path d="M5.25 24.5C4.76389 24.5 4.35069 24.3298 4.01042 23.9896C3.67014 23.6493 3.5 23.2361 3.5 22.75V20.5333L8.16667 16.3917V24.5H5.25ZM9.33333 24.5V19.8333H18.6667V24.5H9.33333ZM19.8333 24.5V14.9333L14.8458 10.5L18.375 7.37915L23.9167 12.3083C24.1111 12.4833 24.2569 12.6826 24.3542 12.9062C24.4514 13.1298 24.5 13.368 24.5 13.6208V22.75C24.5 23.2361 24.3299 23.6493 23.9896 23.9896C23.6493 24.3298 23.2361 24.5 22.75 24.5H19.8333ZM3.5 18.9583V13.6208C3.5 13.368 3.54861 13.125 3.64583 12.8917C3.74306 12.6583 3.88889 12.4639 4.08333 12.3083L12.8333 4.54999C12.9889 4.39443 13.1688 4.28263 13.3729 4.21457C13.5771 4.14652 13.7861 4.11249 14 4.11249C14.2139 4.11249 14.4229 4.14652 14.6271 4.21457C14.8313 4.28263 15.0111 4.39443 15.1667 4.54999L17.5 6.62082L3.5 18.9583Z" fill="#353866"/>
</g>
</svg>
