<svg width="28" height="28" viewBox="0 0 28 28" fill="none" xmlns="http://www.w3.org/2000/svg">
<g id="newspaper">
<mask id="mask0_81_422" style="mask-type:alpha" maskUnits="userSpaceOnUse" x="0" y="0" width="28" height="28">
<rect id="Bounding box" width="28" height="28" fill="#D9D9D9"/>
</mask>
<g mask="url(#mask0_81_422)">
<path id="newspaper_2" d="M4.66671 24.5C4.02504 24.5 3.47574 24.2715 3.01879 23.8146C2.56185 23.3576 2.33337 22.8083 2.33337 22.1667V3.5L4.28754 5.45417L6.21254 3.5L8.16671 5.45417L10.1209 3.5L12.0459 5.45417L14 3.5L15.9542 5.45417L17.8792 3.5L19.8334 5.45417L21.7875 3.5L23.7125 5.45417L25.6667 3.5V22.1667C25.6667 22.8083 25.4382 23.3576 24.9813 23.8146C24.5243 24.2715 23.975 24.5 23.3334 24.5H4.66671ZM4.66671 22.1667H12.8334V15.1667H4.66671V22.1667ZM15.1667 22.1667H23.3334V19.8333H15.1667V22.1667ZM15.1667 17.5H23.3334V15.1667H15.1667V17.5ZM4.66671 12.8333H23.3334V9.33333H4.66671V12.8333Z" fill="#353866"/>
</g>
</g>
</svg>
