<svg width="24" height="22" viewBox="0 0 24 22" fill="none" xmlns="http://www.w3.org/2000/svg">
<path d="M2.66671 21.5C2.02504 21.5 1.47574 21.2715 1.01879 20.8146C0.561846 20.3576 0.333374 19.8083 0.333374 19.1667V0.5L2.28754 2.45417L4.21254 0.5L6.16671 2.45417L8.12087 0.5L10.0459 2.45417L12 0.5L13.9542 2.45417L15.8792 0.5L17.8334 2.45417L19.7875 0.5L21.7125 2.45417L23.6667 0.5V19.1667C23.6667 19.8083 23.4382 20.3576 22.9813 20.8146C22.5243 21.2715 21.975 21.5 21.3334 21.5H2.66671ZM2.66671 19.1667H10.8334V12.1667H2.66671V19.1667ZM13.1667 19.1667H21.3334V16.8333H13.1667V19.1667ZM13.1667 14.5H21.3334V12.1667H13.1667V14.5ZM2.66671 9.83333H21.3334V6.33333H2.66671V9.83333Z" fill="#E75BA6"/>
</svg>
